<?xml version="1.0" encoding="iso-8859-1"?>
<!-- Generator: Adobe Illustrator 18.0.0, SVG Export Plug-In . SVG Version: 6.00 Build 0)  -->
<!DOCTYPE svg PUBLIC "-//W3C//DTD SVG 1.1//EN" "http://www.w3.org/Graphics/SVG/1.1/DTD/svg11.dtd">
<svg version="1.1" id="Capa_1" xmlns="http://www.w3.org/2000/svg" xmlns:xlink="http://www.w3.org/1999/xlink" x="0px" y="0px"
	 viewBox="0 0 492.538 492.538" style="enable-background:new 0 0 492.538 492.538;" xml:space="preserve">
<g id="XMLID_272_">
	<path id="XMLID_277_" d="M127.998,99.01c26.012,0,47.096-21.072,47.096-47.08c0-26.018-21.084-47.093-47.096-47.093
		c-26.005,0-47.089,21.075-47.089,47.093C80.91,77.938,101.993,99.01,127.998,99.01z"/>
	<path id="XMLID_276_" d="M160.982,240.379c0,32.791,0,12.982,0,44.979c0,5.8-4.701,10.493-10.493,10.493
		c-7.658,0-13.273,0-17.416,0c-7.805,0-10.267,0-10.043,0c-4.18,0-9.807,0-17.52,0c-5.791,0-10.495-4.693-10.495-10.493
		c0-29.631,0-24.071,0-44.979H58.961l-17.543,82.576c-0.657,3.097,0.127,6.32,2.11,8.784c2.002,2.454,4.988,3.887,8.14,3.887h19.18
		v127.907c0,13.355,10.829,24.168,24.167,24.168c13.342,0,24.17-10.813,24.17-24.168V335.626h17.63v127.907
		c0,13.355,10.826,24.168,24.167,24.168s24.169-10.813,24.169-24.168V335.626h19.21c3.151,0,6.145-1.433,8.146-3.887
		c1.982-2.464,2.767-5.688,2.11-8.784l-17.55-82.576H160.982z"/>
	<path id="XMLID_273_" d="M479.806,396.744c-5.243-14.037-13.962-26.695-25.7-36.565c-19.898-16.717-46.184-23.785-71.776-19.314
		c-33.907,5.935-61.263,31.079-69.999,64.366l-6.825,25.999c-18.315-12.066-30.471-32.767-30.471-56.312v-55.351
		c0-1.025-0.352-1.938-0.577-2.889c2.829-2.902,4.605-6.853,4.605-11.236v-73.524c8.316-1.223,15.391-7.317,16.973-16.043
		c2.001-10.941-5.244-21.425-16.205-23.417l-0.768-0.143v-5.183l30.331-38.829l17.483,15.22c3.054,2.656,6.825,3.967,10.585,3.967
		c4.495,0,8.979-1.871,12.159-5.536c5.842-6.71,5.133-16.881-1.568-22.73L286.819,85.88c-6.669-5.825-16.888-5.153-22.745,1.566
		c-5.834,6.71-5.134,16.884,1.569,22.729l19.436,16.924l-34.827,44.565c-2.22,2.828-3.418,6.323-3.418,9.915v4.87l-17.502-3.182
		l-43.86-65.951c-3.807-5.693-9.993-8.699-16.362-8.836H86.975c-7.55,0.128-14.685,4.319-17.994,11.627L1.828,267.227
		c-4.624,10.119-0.177,22.066,9.946,26.69c2.719,1.231,5.554,1.821,8.352,1.821c7.647,0,14.971-4.373,18.329-11.779l20.986-45.985
		l0.384-1.697l4.866-21.891h126.876l-4.732-22.289l13.705,20.61c3.023,4.55,7.774,7.677,13.165,8.662l33.129,6.028v78.044
		c0,4.383,1.788,8.334,4.623,11.236c-0.244,0.951-0.597,1.863-0.597,2.889v55.351c0,34.856,19.564,65.205,48.275,80.698
		c-1.709,6.774,0.02,13.955,4.654,19.178c4.69,5.256,11.691,7.823,18.668,6.822l74.41-10.627
		c10.16,10.293,24.217,16.713,39.784,16.713c30.823,0,55.886-25.071,55.886-55.889C492.538,418.473,487.648,406.364,479.806,396.744
		z M436.653,455.48c-13.037,0-23.658-10.612-23.658-23.667c0-13.052,10.621-23.663,23.658-23.663
		c13.048,0,23.669,10.611,23.669,23.663C460.322,444.868,449.701,455.48,436.653,455.48z"/>
</g>
<g>
</g>
<g>
</g>
<g>
</g>
<g>
</g>
<g>
</g>
<g>
</g>
<g>
</g>
<g>
</g>
<g>
</g>
<g>
</g>
<g>
</g>
<g>
</g>
<g>
</g>
<g>
</g>
<g>
</g>
</svg>
